<mxfile host="app.diagrams.net" modified="2020-07-19T17:13:09.326Z" agent="5.0 (Macintosh; Intel Mac OS X 10_14_6) AppleWebKit/537.36 (KHTML, like Gecko) Chrome/83.0.4103.116 Safari/537.36" etag="jMgMgjHoF5MGgtA1tjMs" version="13.4.6" type="github">
  <diagram id="gBeoyxnjPRkxt87tUZH4" name="Page-1">
    <mxGraphModel dx="1351" dy="889" grid="1" gridSize="10" guides="1" tooltips="1" connect="1" arrows="1" fold="1" page="0" pageScale="1" pageWidth="850" pageHeight="1100" math="0" shadow="0">
      <root>
        <mxCell id="0" />
        <mxCell id="1" parent="0" />
        <mxCell id="b8Ko2YbfWa-QRJcQ-C6n-1" value="Al&#39;Kalir Square" style="text;html=1;strokeColor=none;fillColor=none;align=center;verticalAlign=middle;whiteSpace=wrap;rounded=0;fontStyle=1;fontSize=16;" vertex="1" parent="1">
          <mxGeometry x="385" y="490" width="40" height="20" as="geometry" />
        </mxCell>
        <mxCell id="b8Ko2YbfWa-QRJcQ-C6n-2" value="Usun&#39;s Lair Inn/Tavern" style="text;html=1;strokeColor=none;fillColor=none;align=center;verticalAlign=middle;whiteSpace=wrap;rounded=0;" vertex="1" parent="1">
          <mxGeometry x="225" y="450" width="70" height="40" as="geometry" />
        </mxCell>
        <mxCell id="b8Ko2YbfWa-QRJcQ-C6n-3" value="Weaponsmith&lt;br&gt;Gar Steelarm - Ork" style="text;html=1;strokeColor=none;fillColor=none;align=center;verticalAlign=middle;whiteSpace=wrap;rounded=0;" vertex="1" parent="1">
          <mxGeometry x="200" y="570" width="120" height="40" as="geometry" />
        </mxCell>
        <mxCell id="b8Ko2YbfWa-QRJcQ-C6n-4" value="Alchemist&lt;br&gt;Neloth - Elf" style="text;html=1;strokeColor=none;fillColor=none;align=center;verticalAlign=middle;whiteSpace=wrap;rounded=0;" vertex="1" parent="1">
          <mxGeometry x="500" y="450" width="70" height="40" as="geometry" />
        </mxCell>
        <mxCell id="b8Ko2YbfWa-QRJcQ-C6n-5" value="Path to Shipyard" style="text;html=1;strokeColor=none;fillColor=none;align=center;verticalAlign=middle;whiteSpace=wrap;rounded=0;" vertex="1" parent="1">
          <mxGeometry x="70" y="510" width="70" height="40" as="geometry" />
        </mxCell>
        <mxCell id="b8Ko2YbfWa-QRJcQ-C6n-6" value="Path to Spire" style="text;html=1;strokeColor=none;fillColor=none;align=center;verticalAlign=middle;whiteSpace=wrap;rounded=0;" vertex="1" parent="1">
          <mxGeometry x="370" y="20" width="70" height="40" as="geometry" />
        </mxCell>
        <mxCell id="b8Ko2YbfWa-QRJcQ-C6n-7" value="South Gate" style="text;html=1;strokeColor=none;fillColor=none;align=center;verticalAlign=middle;whiteSpace=wrap;rounded=0;" vertex="1" parent="1">
          <mxGeometry x="370" y="660" width="70" height="40" as="geometry" />
        </mxCell>
        <mxCell id="b8Ko2YbfWa-QRJcQ-C6n-9" value="Small Market" style="text;html=1;strokeColor=none;fillColor=none;align=center;verticalAlign=middle;whiteSpace=wrap;rounded=0;" vertex="1" parent="1">
          <mxGeometry x="385" y="540" width="40" height="20" as="geometry" />
        </mxCell>
        <mxCell id="b8Ko2YbfWa-QRJcQ-C6n-10" value="Guard House" style="text;html=1;strokeColor=none;fillColor=none;align=center;verticalAlign=middle;whiteSpace=wrap;rounded=0;" vertex="1" parent="1">
          <mxGeometry x="515" y="600" width="40" height="20" as="geometry" />
        </mxCell>
        <mxCell id="b8Ko2YbfWa-QRJcQ-C6n-11" value="Ramat&#39;s Unique Antiques" style="text;html=1;strokeColor=none;fillColor=none;align=center;verticalAlign=middle;whiteSpace=wrap;rounded=0;" vertex="1" parent="1">
          <mxGeometry x="515" y="540" width="40" height="20" as="geometry" />
        </mxCell>
        <mxCell id="b8Ko2YbfWa-QRJcQ-C6n-12" value="Treetoc&lt;br&gt;Plaza" style="text;html=1;strokeColor=none;fillColor=none;align=center;verticalAlign=middle;whiteSpace=wrap;rounded=0;fontSize=16;fontStyle=1" vertex="1" parent="1">
          <mxGeometry x="385" y="140" width="40" height="20" as="geometry" />
        </mxCell>
        <mxCell id="b8Ko2YbfWa-QRJcQ-C6n-13" value="Large Market" style="text;html=1;strokeColor=none;fillColor=none;align=center;verticalAlign=middle;whiteSpace=wrap;rounded=0;" vertex="1" parent="1">
          <mxGeometry x="370" y="180" width="70" height="40" as="geometry" />
        </mxCell>
        <mxCell id="b8Ko2YbfWa-QRJcQ-C6n-14" value="Path to Shipyard" style="text;html=1;strokeColor=none;fillColor=none;align=center;verticalAlign=middle;whiteSpace=wrap;rounded=0;" vertex="1" parent="1">
          <mxGeometry x="70" y="120" width="70" height="40" as="geometry" />
        </mxCell>
        <mxCell id="b8Ko2YbfWa-QRJcQ-C6n-15" value="Path to Business District" style="text;html=1;strokeColor=none;fillColor=none;align=center;verticalAlign=middle;whiteSpace=wrap;rounded=0;" vertex="1" parent="1">
          <mxGeometry x="670" y="120" width="70" height="40" as="geometry" />
        </mxCell>
        <mxCell id="b8Ko2YbfWa-QRJcQ-C6n-16" value="House of Silk &amp;amp; Flowers" style="text;html=1;strokeColor=none;fillColor=none;align=center;verticalAlign=middle;whiteSpace=wrap;rounded=0;" vertex="1" parent="1">
          <mxGeometry x="515" y="70" width="70" height="40" as="geometry" />
        </mxCell>
      </root>
    </mxGraphModel>
  </diagram>
</mxfile>
